<svg width="189" height="24" viewBox="0 0 189 24" fill="none" xmlns="http://www.w3.org/2000/svg">
<path d="M0.93934 10.9393C0.353553 11.5251 0.353553 12.4749 0.93934 13.0607L10.4853 22.6066C11.0711 23.1924 12.0208 23.1924 12.6066 22.6066C13.1924 22.0208 13.1924 21.0711 12.6066 20.4853L4.12132 12L12.6066 3.51471C13.1924 2.92893 13.1924 1.97918 12.6066 1.39339C12.0208 0.807606 11.0711 0.807606 10.4853 1.39339L0.93934 10.9393ZM80 10.5L2 10.5L2 13.5L80 13.5L80 10.5Z" fill="white"/>
<path d="M188.061 13.0607C188.646 12.4749 188.646 11.5251 188.061 10.9393L178.515 1.3934C177.929 0.807613 176.979 0.807613 176.393 1.3934C175.808 1.97919 175.808 2.92893 176.393 3.51472L184.879 12L176.393 20.4853C175.808 21.0711 175.808 22.0208 176.393 22.6066C176.979 23.1924 177.929 23.1924 178.515 22.6066L188.061 13.0607ZM109 13.5H187V10.5H109V13.5Z" fill="white"/>
</svg>
