<svg width="35" height="35" viewBox="0 0 35 35" fill="none" xmlns="http://www.w3.org/2000/svg">
<path fill-rule="evenodd" clip-rule="evenodd" d="M34.875 17.375C34.875 26.9709 27.0959 34.75 17.5 34.75C7.90405 34.75 0.125 26.9709 0.125 17.375C0.125 7.77905 7.90405 0 17.5 0C27.0959 0 34.875 7.77905 34.875 17.375ZM11.7602 15.7834C10.0196 16.5433 8.23125 17.3242 6.59594 18.2249L6.59583 18.225C5.74193 18.8502 6.87694 19.2924 7.94164 19.7072C8.11091 19.7732 8.2784 19.8384 8.43584 19.9036C8.56685 19.9439 8.70009 19.9863 8.8351 20.0293C10.0193 20.4066 11.3397 20.8273 12.4893 20.1945C14.3778 19.1096 16.16 17.8554 17.9408 16.6022C18.5242 16.1916 19.1075 15.7811 19.6944 15.3767C19.7219 15.3591 19.7529 15.339 19.7868 15.317C20.2868 14.9929 21.4111 14.2641 20.9952 15.2683C20.0118 16.3438 18.9584 17.2959 17.8992 18.2532C17.1855 18.8983 16.4691 19.5458 15.7697 20.235C15.1606 20.7299 14.5281 21.7251 15.2102 22.4181C16.7811 23.5179 18.3766 24.591 19.9711 25.6634C20.49 26.0124 21.0088 26.3613 21.5266 26.7111C22.4041 27.4117 23.7757 26.845 23.9686 25.7501C24.0544 25.2465 24.1406 24.7428 24.2267 24.2391C24.7028 21.4558 25.179 18.6714 25.5997 15.8789C25.6569 15.4409 25.7217 15.0029 25.7865 14.5647C25.9437 13.5025 26.1011 12.4391 26.1502 11.3713C26.0235 10.3057 24.7314 10.54 24.0124 10.7796C20.3164 12.1859 16.6574 13.6965 13.0128 15.2338C12.6 15.4167 12.1815 15.5994 11.7602 15.7834Z" fill="white"/>
</svg>
