<svg width="35" height="36" viewBox="0 0 35 36" fill="none" xmlns="http://www.w3.org/2000/svg">
<path fill-rule="evenodd" clip-rule="evenodd" d="M22.8036 0.447876H12.0913C2.31484 0.447876 0 2.76271 0 12.5392V23.2515C0 33.028 2.31484 35.3428 12.0913 35.3428H22.8036C32.5801 35.3428 34.8949 33.028 34.8949 23.2515V12.5392C34.8949 2.76271 32.5801 0.447876 22.8036 0.447876ZM27.8027 11.5295C28.5661 11.5295 28.7385 11.9235 28.5661 12.4653C28.2971 13.7069 26.063 17.0006 25.3711 18.0207C25.2396 18.2145 25.1638 18.3263 25.1677 18.3263C24.8968 18.7695 24.7983 18.9666 25.1677 19.4591C25.3013 19.6412 25.5844 19.919 25.908 20.2366C26.2408 20.5632 26.6165 20.9318 26.9162 21.2814C27.9997 22.5127 28.837 23.547 29.0586 24.2611C29.2556 24.9753 28.9109 25.3447 28.1721 25.3447H25.6356C24.9634 25.3447 24.6169 24.9586 23.8785 24.1359C23.5619 23.7832 23.1732 23.3501 22.6559 22.8328C21.1537 21.3799 20.4888 21.1829 20.1194 21.1829C19.6023 21.1829 19.4545 21.306 19.4545 22.0448V24.335C19.4545 24.9507 19.2575 25.32 17.6322 25.32C14.948 25.32 11.9682 23.6947 9.87502 20.6657C6.7229 16.2331 5.86099 12.884 5.86099 12.2191C5.86099 11.8497 5.98412 11.5049 6.7229 11.5049H9.28399C9.92427 11.5049 10.1705 11.7758 10.4168 12.4899C11.6727 16.1099 13.7659 19.2867 14.6278 19.2867C14.948 19.2867 15.0957 19.1389 15.0957 18.3263V14.5831C15.0349 13.5192 14.6645 13.0556 14.3899 12.7119C14.2196 12.4987 14.0861 12.3316 14.0861 12.0959C14.0861 11.8004 14.3323 11.5049 14.7263 11.5049H18.7157C19.2575 11.5049 19.4545 11.8004 19.4545 12.4407V17.489C19.4545 18.0308 19.6761 18.2278 19.8485 18.2278C20.1687 18.2278 20.4395 18.0308 21.0306 17.4397C22.8529 15.3958 24.1581 12.2437 24.1581 12.2437C24.3304 11.8743 24.6259 11.5295 25.2662 11.5295H27.8027Z" fill="white"/>
</svg>
