<svg width="35" height="35" viewBox="0 0 35 35" fill="none" xmlns="http://www.w3.org/2000/svg">
<path fill-rule="evenodd" clip-rule="evenodd" d="M17.5 0C7.83502 0 0 7.83502 0 17.5C0 27.165 7.83502 35 17.5 35C27.165 35 35 27.165 35 17.5C35 7.83502 27.165 0 17.5 0ZM24.7928 11.4839C25.596 11.7043 26.2286 12.3537 26.4432 13.1784C26.8333 14.673 26.8333 17.7917 26.8333 17.7917C26.8333 17.7917 26.8333 20.9102 26.4432 22.4049C26.2286 23.2296 25.596 23.879 24.7928 24.0996C23.3373 24.5 17.5 24.5 17.5 24.5C17.5 24.5 11.6627 24.5 10.2071 24.0996C9.40386 23.879 8.77132 23.2296 8.55665 22.4049C8.16667 20.9102 8.16667 17.7917 8.16667 17.7917C8.16667 17.7917 8.16667 14.673 8.55665 13.1784C8.77132 12.3537 9.40386 11.7043 10.2071 11.4839C11.6627 11.0833 17.5 11.0833 17.5 11.0833C17.5 11.0833 23.3373 11.0833 24.7928 11.4839Z" fill="white"/>
<path d="M15.75 21V15.1667L20.4167 18.0835L15.75 21Z" fill="white"/>
</svg>
